PathFileType	4	(X/Y/Z)	/Users/itak/Documents/Research/Walk-IL/dataset/trc/00163_00008.trc
DataRate	CameraRate	NumFrames	NumMarkers	Units	OrigDataRate	OrigDataStartFrame	OrigNumFrames
100.000000	100.000000	4	53	mm	100.000000	138	552
Frame#	Time	RPSI			LPSI			L3			STRN			T10			C7			CLAV			RBAK			LBAK			LSHO			LUPA			LAEL			LAOL			LWTS			LWPS			LFRA			LIFD			LHPS			LHTS			RSHO			RUPA			RAEL			RAOL			RWTS			RWPS			RFRA			RIFD			RHTS			RHPS			RBHD			LFHD			RFHD			LBHD			LHIP			RHIP			RASI			LASI			LKNE			LTHI			LANK			LTIP			LTOE			LMT1			LMT5			LHEE			RKNE			RTHI			RANK			RTIP			RTOE			RMT1			RMT5			RHEE			
		X1	Y1	Z1	X2	Y2	Z2	X3	Y3	Z3	X4	Y4	Z4	X5	Y5	Z5	X6	Y6	Z6	X7	Y7	Z7	X8	Y8	Z8	X9	Y9	Z9	X10	Y10	Z10	X11	Y11	Z11	X12	Y12	Z12	X13	Y13	Z13	X14	Y14	Z14	X15	Y15	Z15	X16	Y16	Z16	X17	Y17	Z17	X18	Y18	Z18	X19	Y19	Z19	X20	Y20	Z20	X21	Y21	Z21	X22	Y22	Z22	X23	Y23	Z23	X24	Y24	Z24	X25	Y25	Z25	X26	Y26	Z26	X27	Y27	Z27	X28	Y28	Z28	X29	Y29	Z29	X30	Y30	Z30	X31	Y31	Z31	X32	Y32	Z32	X33	Y33	Z33	X34	Y34	Z34	X35	Y35	Z35	X36	Y36	Z36	X37	Y37	Z37	X38	Y38	Z38	X39	Y39	Z39	X40	Y40	Z40	X41	Y41	Z41	X42	Y42	Z42	X43	Y43	Z43	X44	Y44	Z44	X45	Y45	Z45	X46	Y46	Z46	X47	Y47	Z47	X48	Y48	Z48	X49	Y49	Z49	X50	Y50	Z50	X51	Y51	Z51	X52	Y52	Z52	X53	Y53	Z53	

139	1.38	-1934.10888671875	1053.87841796875	45.33142852783203	-1926.7333984375	1052.536743164062	-78.60939788818359	-1929.919067382812	1090.984130859375	-14.79276943206787	-1664.118286132812	1295.415405273438	-9.520646095275879	-1962.137329101562	1249.922607421875	-23.47244834899902	-1888.661499023438	1517.429809570312	-31.68960952758789	-1688.174926757812	1411.084106445312	-19.63210105895996	-1964.1171875	1344.065551757812	75.95809936523438	-1890.357055664062	1493.605590820312	-134.4735565185547	-1808.205444335938	1478.8349609375	-208.5428009033203	-1831.538452148438	1347.14404296875	-285.7399291992188	-1805.918090820312	1126.489379882812	-301.5917358398438	-1868.342163085938	1112.688598632812	-240.9524383544922	-1701.994873046875	898.9923706054688	-237.9927368164062	-1769.564697265625	873.9324340820312	-298.2745361328125	-1787.169555664062	1015.994018554688	-309.5636291503906	-1684.741577148438	716.9666748046875	-202.8786773681641	-1747.190307617188	804.6382446289062	-285.3222045898438	-1683.531616210938	821.4539794921875	-253.3622283935547	-1833.373168945312	1496.642456054688	151.4434967041016	-1854.629638671875	1430.293823242188	221.7375946044922	-1859.437133789062	1139.351684570312	277.0709533691406	-1868.059692382812	1133.199584960938	178.638427734375	-1711.67041015625	917.2758178710938	241.1405029296875	-1781.140258789062	896.9132690429688	295.015380859375	-1829.42236328125	1067.310546875	292.130859375	-1688.716796875	729.0486450195312	214.2102203369141	-1682.206909179688	823.8569946289062	243.9113311767578	-1749.749633789062	814.32177734375	286.1142578125	-1819.964599609375	1683.93505859375	45.71722412109375	-1639.343139648438	1708.559326171875	-73.22734832763672	-1646.136352539062	1702.505004882812	55.87827682495117	-1817.6015625	1698.718627929688	-91.43381500244141	-1819.110229492188	986.8727416992188	-194.1182098388672	-1782.957885742188	1012.850830078125	173.9219360351562	-1698.308227539062	1038.100341796875	122.0277709960938	-1697.860961914062	1022.713928222656	-135.6692352294922	-1820.677124023438	494.5623779296875	-186.1857299804688	-1806.243408203125	637.6978759765625	-204.1511688232422	-1937.248046875	44.75232696533203	-224.6816253662109	-1878.010131835938	278.5513305664062	-217.7906036376953	-1718.037231445312	39.10264205932617	-207.6110382080078	-1766.079956054688	37.83439254760742	-157.7752227783203	-1830.987182617188	33.21026611328125	-269.3306884765625	-1985.208251953125	42.39859390258789	-151.7491912841797	-1786.586303710938	512.3287963867188	152.3484649658203	-1734.4814453125	779.3601684570312	185.1226348876953	-1911.2861328125	38.14652633666992	148.1977844238281	-1785.18798828125	390.3905639648438	135.5111846923828	-1686.903198242188	39.21243286132812	131.5021362304688	-1737.7607421875	36.52036666870117	80.68821716308594	-1801.577026367188	34.32314682006836	191.2846069335938	-1956.278198242188	36.54986572265625	77.34480285644531	
140	1.39	-1933.471313476562	1053.975708007812	46.78642272949219	-1926.102661132812	1052.702758789062	-77.18365478515625	-1929.206909179688	1091.081420898438	-13.26948547363281	-1663.281982421875	1295.27734375	-8.052921295166016	-1961.377807617188	1250.110107421875	-21.88027763366699	-1887.65771484375	1517.54296875	-29.88205528259277	-1687.280883789062	1410.986206054688	-18.03927993774414	-1963.257690429688	1344.121337890625	77.63332366943359	-1889.4306640625	1493.802612304688	-132.6826171875	-1807.349853515625	1479.087036132812	-206.8322143554688	-1830.90673828125	1347.485717773438	-284.1473999023438	-1805.65625	1126.875610351562	-300.3233642578125	-1867.941650390625	1113.045532226562	-239.5360260009766	-1701.688842773438	899.27294921875	-237.3390350341797	-1769.575439453125	874.2870483398438	-297.4891662597656	-1787.042236328125	1016.377990722656	-308.5131530761719	-1684.634521484375	717.2154541015625	-202.4272155761719	-1747.170043945312	804.957275390625	-284.6798095703125	-1683.3154296875	821.698974609375	-253.1689758300781	-1832.31787109375	1496.471313476562	153.1960754394531	-1853.610961914062	1430.088989257812	223.4089660644531	-1858.690795898438	1139.106323242188	278.4317016601562	-1867.33544921875	1133.0751953125	180.0126800537109	-1711.176147460938	916.8776245117188	242.2719268798828	-1780.65673828125	896.5595703125	296.1539001464844	-1828.750366210938	1066.995727539062	293.4258728027344	-1688.429077148438	728.6613159179688	215.1848297119141	-1681.825805664062	823.4188842773438	244.9570007324219	-1749.327880859375	813.9496459960938	287.1589965820312	-1818.866455078125	1683.713012695312	47.81719970703125	-1638.491088867188	1708.72509765625	-71.39643096923828	-1645.05810546875	1702.347412109375	57.72352981567383	-1816.767700195312	1698.83544921875	-89.29237365722656	-1818.531860351562	986.9534301757812	-192.7606964111328	-1782.291625976562	1012.795166015625	175.3412475585938	-1697.604858398438	1037.98193359375	123.3630981445312	-1697.275268554688	1022.910034179688	-134.3354797363281	-1818.971313476562	494.4048156738281	-185.6505432128906	-1805.212158203125	637.7244262695312	-203.4405212402344	-1937.261474609375	44.73322677612305	-224.7328338623047	-1877.072631835938	278.4309692382812	-217.5204010009766	-1718.090209960938	39.11751556396484	-207.6299438476562	-1766.114868164062	37.86212539672852	-157.8192749023438	-1830.9580078125	33.14814376831055	-269.3967895507812	-1985.222778320312	42.39523696899414	-151.7714996337891	-1786.317260742188	512.1843872070312	153.091796875	-1734.03955078125	779.1895141601562	186.2370147705078	-1911.341796875	38.02583694458008	148.3033905029297	-1785.04736328125	390.3084716796875	136.0741271972656	-1687.051391601562	39.3082389831543	131.4921875	-1737.86181640625	36.59326934814453	80.71649932861328	-1801.617065429688	34.27281951904297	191.313232421875	-1956.384643554688	36.47570419311523	77.457763671875	
141	1.4	-1932.828002929688	1054.06201171875	48.29430770874023	-1925.490356445312	1052.883911132812	-75.69760131835938	-1928.473754882812	1091.186767578125	-11.67939758300781	-1662.442749023438	1295.133544921875	-6.532764911651611	-1960.607543945312	1250.31640625	-20.2308521270752	-1886.621459960938	1517.671752929688	-28.01809310913086	-1686.347900390625	1410.875	-16.40362548828125	-1962.3759765625	1344.196166992188	79.36116790771484	-1888.478149414062	1494.023315429688	-130.8348846435547	-1806.46728515625	1479.355712890625	-205.0664672851562	-1830.272338867188	1347.858276367188	-282.5126342773438	-1805.427978515625	1127.286376953125	-299.0208129882812	-1867.556396484375	1113.426513671875	-238.0673217773438	-1701.365966796875	899.5794067382812	-236.6787567138672	-1769.601196289062	874.6637573242188	-296.6688537597656	-1786.934936523438	1016.784423828125	-307.4256591796875	-1684.531005859375	717.5103759765625	-201.9505615234375	-1747.148559570312	805.3070678710938	-284.0031433105469	-1683.11865234375	821.959228515625	-252.8606719970703	-1831.224975585938	1496.305908203125	155.0005798339844	-1852.561401367188	1429.885009765625	225.1378936767578	-1857.917846679688	1138.866943359375	279.8411254882812	-1866.587036132812	1132.956665039062	181.4420318603516	-1710.663818359375	916.4715576171875	243.4431915283203	-1780.148559570312	896.21630859375	297.3307189941406	-1828.058959960938	1066.67919921875	294.7656860351562	-1688.118408203125	728.2853393554688	216.1867218017578	-1681.420532226562	822.98681640625	246.0426788330078	-1748.869995117188	813.5848999023438	288.2388305664062	-1817.725708007812	1683.505859375	49.96514129638672	-1637.603515625	1708.89208984375	-69.54708099365234	-1643.915771484375	1702.214599609375	59.58560562133789	-1815.89501953125	1698.9482421875	-87.11354827880859	-1817.962524414062	987.0441284179688	-191.3483734130859	-1781.600341796875	1012.721862792969	176.8271636962891	-1696.914184570312	1037.8515625	124.7495040893555	-1696.720458984375	1023.065856933594	-132.9510955810547	-1816.981567382812	494.2115783691406	-185.1063690185547	-1804.007080078125	637.7381591796875	-202.7398681640625	-1937.268188476562	44.71672058105469	-224.7871398925781	-1875.94970703125	278.2572937011719	-217.2570953369141	-1718.140991210938	39.13074111938477	-207.6467742919922	-1766.1474609375	37.88861465454102	-157.8600006103516	-1830.927856445312	33.08004379272461	-269.4640197753906	-1985.237548828125	42.40183258056641	-151.7972717285156	-1785.986083984375	512.02392578125	153.862060546875	-1733.614379882812	778.9884033203125	187.3950042724609	-1911.3955078125	37.89530563354492	148.4290466308594	-1784.845458984375	390.1904907226562	136.6500549316406	-1687.207885742188	39.41446685791016	131.47509765625	-1737.971801757812	36.6688232421875	80.74254608154297	-1801.658935546875	34.22292327880859	191.3419494628906	-1956.501708984375	36.39925765991211	77.58659362792969	
142	1.41	-1932.179565429688	1054.131103515625	49.86186218261719	-1924.90087890625	1053.075805664062	-74.14727020263672	-1927.731323242188	1091.301147460938	-10.02828121185303	-1661.60595703125	1294.9853515625	-4.959855556488037	-1959.827514648438	1250.541748046875	-18.52396392822266	-1885.549438476562	1517.816040039062	-26.0991096496582	-1685.376342773438	1410.749877929688	-14.72552394866943	-1961.471801757812	1344.29345703125	81.14033508300781	-1887.494750976562	1494.268920898438	-128.9341430664062	-1805.552124023438	1479.636840820312	-203.2450256347656	-1829.629272460938	1348.256958007812	-280.8321533203125	-1805.23486328125	1127.718627929688	-297.6846618652344	-1867.187133789062	1113.82861328125	-236.546875	-1701.047729492188	899.9014282226562	-236.0149841308594	-1769.646850585938	875.0623779296875	-295.8142700195312	-1786.850952148438	1017.209655761719	-306.3004455566406	-1684.434936523438	717.8383178710938	-201.4592590332031	-1747.130249023438	805.6845092773438	-283.2925109863281	-1682.927856445312	822.2344360351562	-252.4408264160156	-1830.093505859375	1496.148193359375	156.8566741943359	-1851.480590820312	1429.680786132812	226.9249420166016	-1857.11865234375	1138.6298828125	281.3017272949219	-1865.818603515625	1132.840209960938	182.9314727783203	-1710.13427734375	916.0625	244.6534881591797	-1779.61572265625	895.8834838867188	298.5426635742188	-1827.340942382812	1066.368408203125	296.1508178710938	-1687.779296875	727.9244995117188	217.21630859375	-1680.992309570312	822.560546875	247.1651916503906	-1748.388916015625	813.2215576171875	289.3545532226562	-1816.537475585938	1683.318969726562	52.1570930480957	-1636.674194335938	1709.051391601562	-67.68527221679688	-1642.703002929688	1702.105834960938	61.45602035522461	-1814.9814453125	1699.05517578125	-84.90373229980469	-1817.413452148438	987.1494140625	-189.8803253173828	-1780.880737304688	1012.6240234375	178.3872833251953	-1696.242797851562	1037.711547851562	126.1897659301758	-1696.20703125	1023.17529296875	-131.5185699462891	-1814.675659179688	493.9859619140625	-184.5493316650391	-1802.59619140625	637.7384643554688	-202.0460510253906	-1937.262817382812	44.71315383911133	-224.8324890136719	-1874.622436523438	278.0369873046875	-216.9868927001953	-1718.181884765625	39.14017105102539	-207.6605529785156	-1766.171508789062	37.91196060180664	-157.8951110839844	-1830.899658203125	33.01131439208984	-269.52734375	-1985.24560546875	42.43428039550781	-151.8156585693359	-1785.588989257812	511.8492126464844	154.6605377197266	-1733.21484375	778.7514038085938	188.5934295654297	-1911.446044921875	37.76091766357422	148.5731964111328	-1784.565185546875	390.0297241210938	137.2373046875	-1687.367065429688	39.52700424194336	131.4487609863281	-1738.08935546875	36.74414825439453	80.76255035400391	-1801.700561523438	34.17598342895508	191.3688049316406	-1956.628662109375	36.32383346557617	77.73131561279297	
